<?xml version="1.0" encoding="UTF-8"?>
<svg id="Camada_2" data-name="Camada 2" xmlns="http://www.w3.org/2000/svg" xmlns:xlink="http://www.w3.org/1999/xlink" viewBox="0 0 836.3 836.3">
  <defs>
    <style>
      .cls-1 {
        fill: url(#Gradiente_sem_nome_32-2);
      }

      .cls-2 {
        fill: #031a2b;
      }

      .cls-3 {
        fill: url(#Gradiente_sem_nome_32-3);
      }

      .cls-4 {
        fill: url(#Gradiente_sem_nome_32);
      }
    </style>
    <linearGradient id="Gradiente_sem_nome_32" data-name="Gradiente sem nome 32" x1="1108.38" y1="765.74" x2="-120.97" y2="99.84" gradientUnits="userSpaceOnUse">
      <stop offset=".12" stop-color="#ca9a43"/>
      <stop offset=".25" stop-color="#ffda71"/>
      <stop offset=".38" stop-color="#ffda71"/>
      <stop offset=".53" stop-color="#ffe39b"/>
      <stop offset=".65" stop-color="#dfb766"/>
      <stop offset=".74" stop-color="#ca9a43"/>
      <stop offset=".8" stop-color="#deb254"/>
      <stop offset=".86" stop-color="#f0c864"/>
      <stop offset=".93" stop-color="#fbd56d"/>
      <stop offset=".99" stop-color="#ffda71"/>
    </linearGradient>
    <linearGradient id="Gradiente_sem_nome_32-2" data-name="Gradiente sem nome 32" x1="1045.16" y1="882.44" x2="-184.19" y2="216.54" xlink:href="#Gradiente_sem_nome_32"/>
    <linearGradient id="Gradiente_sem_nome_32-3" data-name="Gradiente sem nome 32" x1="1161.42" y1="667.82" x2="-67.93" y2="1.93" xlink:href="#Gradiente_sem_nome_32"/>
  </defs>
  <g id="Camada_3" data-name="Camada 3">
    <g>
      <rect class="cls-2" x="0" y="0" width="836.3" height="836.3"/>
      <g>
        <path class="cls-4" d="M404.97,581.84c-86.82,0-174.7-53.53-174.7-155.85,0-34.24,10.01-66.47,28.96-93.19,10.04-14.2,22.16-26.15,36.01-35.49,11.74-7.95,24.32-13.78,37.54-17.43v-78.46h112.73c41.21,0,82.19,18.22,112.42,49.98,31.01,32.58,48.1,75.72,48.1,121.47,0,117.18-88.31,208.97-201.06,208.97ZM353.83,313.72c-13.4,1.89-26.03,6.82-37.62,14.65-10.11,6.82-18.98,15.59-26.41,26.09-14.44,20.37-22.07,45.1-22.07,71.53,0,86.85,82.07,118.37,137.23,118.37,91.73,0,163.58-75.33,163.58-171.49,0-72.62-56.35-133.97-123.04-133.97h-75.25v36.53c45.09,1.24,72.46,22.51,87.61,40.43,17.31,20.48,27.64,47.34,27.64,71.85,0,10.35-8.39,18.74-18.74,18.74s-18.74-8.39-18.74-18.74c0-24.42-20.03-74.86-81.94-74.86-3.96,0-7.89.26-11.68.78-.19.03-.38.06-.58.08Z"/>
        <path class="cls-1" d="M351.52,660.27c-10.35,0-18.74-8.39-18.74-18.74v-269.63c0-10.35,8.39-18.74,18.74-18.74s18.74,8.39,18.74,18.74v269.63c0,10.35-8.39,18.74-18.74,18.74Z"/>
        <path class="cls-3" d="M383.43,238.9h-96.94c-10.35,0-18.74-8.39-18.74-18.74s8.39-18.74,18.74-18.74h96.94c10.35,0,18.74,8.39,18.74,18.74s-8.39,18.74-18.74,18.74Z"/>
      </g>
    </g>
  </g>
</svg>